<svg xmlns="http://www.w3.org/2000/svg" viewBox="0 0 64 64">
  <!-- bacon strip 1 -->
  <path d="M8 14 Q16 8 24 16 Q32 24 40 16 Q48 8 56 14 L56 24 Q48 18 40 26 Q32 34 24 26 Q16 18 8 24 Z" fill="#c0392b"/>
  <path d="M8 24 Q16 18 24 26 Q32 34 40 26 Q48 18 56 24 L56 30 Q48 24 40 32 Q32 40 24 32 Q16 24 8 30 Z" fill="#f5c6a0"/>
  <!-- bacon strip 2 -->
  <path d="M8 36 Q16 30 24 38 Q32 46 40 38 Q48 30 56 36 L56 46 Q48 40 40 48 Q32 56 24 48 Q16 40 8 46 Z" fill="#c0392b"/>
  <path d="M8 46 Q16 40 24 48 Q32 56 40 48 Q48 40 56 46 L56 52 Q48 46 40 54 Q32 62 24 54 Q16 46 8 52 Z" fill="#f5c6a0"/>
</svg>
